<svg version="1.1" id="svg3847" xmlns="http://www.w3.org/2000/svg" viewBox="7.8 21.2 84 57.99999999999999" style="max-height: 500px" width="84" height="57.99999999999999">
  <defs id="defs3849">
    <clipPath id="clipEmfPath1" clipPathUnits="userSpaceOnUse">
      <path id="path1150" d="M -80.591194,-15.488563 L 190.38629,-15.488563 L 190.38629,46.755196 L -80.591194,46.755196 z"/>
    </clipPath>
    <pattern y="0" x="0" height="6" width="6" patternUnits="userSpaceOnUse" id="EMFhbasepattern"/>
  </defs>
  
  <metadata id="metadata3852">
    
      
        image/svg+xml
        
        
      
    
  </metadata>
  <g transform="translate(0,-952.4)" id="layer1">
    <text id="text1148" y="1017.8858" x="12.614063" style="font-style:normal;font-variant:normal;font-weight:normal;font-stretch:normal;font-size:85.3334px;font-family:Mandali;-inkscape-font-specification:Mandali;font-feature-settings:gsub;fill:#000000;stroke-width:0;stroke-linecap:round;stroke-miterlimit:4;stroke-dasharray:none" xml:space="preserve"><tspan y="1017.8858" x="12.614063" id="tspan1146"/></text>
    <g transform="translate(5.3480095,-9.61895)" style="font-size:85.3334px;font-family:Mandali;-inkscape-font-specification:Mandali;font-feature-settings:gsub;fill:#000000;stroke-width:0;stroke-linecap:round" id="text16" aria-label="అ">
      <path id="path18" d="m 54.589551,1013.2071 q -7.237136,-4.3206 -7.237136,-11.9898 q 0,-4.42874 2.700423,-7.12916 q 2.700424,-2.80844 7.021103,-2.80844 q 5.832915,0 9.181441,5.07679 q 3.456543,4.96881 3.456543,12.20591 q 0,11.4498 -7.777221,18.1469 q -7.237136,6.0489 -17.714781,6.0489 q -10.477645,0 -17.606764,-5.8329 q -7.021103,-5.9409 -7.021103,-16.7426 q 0,-7.3452 3.780594,-13.07009 q 3.780593,-5.83291 9.93756,-5.83291 q 4.536712,0 6.697051,2.80844 q 2.268356,2.80844 2.268356,6.80506 q 0,3.8886 -2.700423,6.373 q -2.700424,2.4844 -6.156967,2.4844 q -3.456543,0 -5.724899,-2.3764 q -2.268356,-2.3763 -2.268356,-7.45315 q -2.268356,3.88865 -2.268356,8.42535 q 0,8.7494 5.508865,13.5021 q 5.508865,4.7527 14.366255,4.7527 q 11.449798,0 17.39073,-4.6447 q 5.940933,-4.6447 5.940933,-13.07 q 0,-5.0768 -1.836288,-8.5334 q -2.376373,-4.42867 -6.589035,-4.42867 q -3.024474,0 -4.752746,2.16034 q -1.728271,2.16033 -1.728271,5.94093 q 0,3.7806 3.780593,6.589 q 3.780594,2.7005 3.780594,3.9967 q 0,0.54 -0.540085,1.4042 q -0.540085,0.7561 -1.188186,0.7561 H 34.822447 q -0.648101,0 -1.296203,-0.4321 q -0.648102,-0.5401 -0.648102,-1.0801 q 0,-1.8363 1.296204,-1.8363 z m -21.063307,-7.5611 q 2.160339,0 3.672576,-1.5123 q 1.620255,-1.6202 1.620255,-3.7806 q 0,-2.26833 -1.620255,-4.10462 q -1.620254,-1.94431 -3.780593,-1.94431 q -2.052322,0 -3.780594,1.83629 q -1.620254,1.83629 -1.620254,4.10464 q 0,2.2684 1.620254,3.8886 q 1.728272,1.5123 3.888611,1.5123 z"/>
    </g>
  </g>
</svg>